<?xml version="1.0" standalone="no"?>
<!DOCTYPE svg PUBLIC "-//W3C//DTD SVG 20010904//EN"
 "http://www.w3.org/TR/2001/REC-SVG-20010904/DTD/svg10.dtd">
<svg version="1.0" xmlns="http://www.w3.org/2000/svg"
 width="720.000000pt" height="720.000000pt" viewBox="0 0 720.000000 720.000000"
 preserveAspectRatio="xMidYMid meet">
<metadata>
Created by potrace 1.11, written by Peter Selinger 2001-2013
</metadata>
<g transform="translate(0.000000,720.000000) scale(0.100000,-0.100000)"
fill="#000000" stroke="none">
<path d="M2210 7176 c-143 -40 -282 -141 -329 -240 -62 -128 -3 -261 139 -316
195 -75 256 -145 342 -386 17 -49 37 -105 44 -124 7 -19 40 -112 73 -207 l60
-172 -61 -31 c-90 -47 -122 -65 -201 -117 -73 -47 -247 -180 -280 -215 -10
-10 -22 -16 -27 -13 -15 9 -29 75 -34 166 -3 47 -9 97 -14 110 -13 32 -60 79
-96 94 -102 44 -290 -65 -361 -210 -49 -99 -48 -165 2 -233 37 -50 59 -56 221
-66 46 -3 91 -11 102 -19 20 -14 20 -14 -3 -38 -39 -43 -163 -203 -177 -229
-7 -14 -16 -27 -20 -30 -10 -8 -130 -213 -130 -223 0 -17 -75 6 -395 122 -33
12 -80 29 -105 37 -25 8 -52 18 -60 21 -8 4 -17 7 -20 8 -3 0 -31 14 -63 30
-97 48 -144 107 -220 273 -88 191 -266 220 -412 67 -49 -52 -121 -174 -129
-221 -3 -12 -9 -39 -15 -60 -30 -107 0 -258 61 -309 51 -43 115 -67 162 -61
62 9 64 9 156 46 148 58 242 51 425 -35 33 -15 92 -42 130 -60 201 -93 345
-165 345 -172 0 -5 -11 -43 -25 -86 -23 -73 -71 -283 -80 -352 -2 -16 -7 -68
-11 -115 -3 -47 -8 -88 -10 -92 -7 -12 -65 28 -129 88 -33 31 -71 60 -85 66
-62 25 -139 11 -187 -33 -21 -20 -60 -99 -70 -143 -12 -53 -9 -147 6 -207 30
-119 87 -179 175 -184 57 -3 86 9 142 61 62 58 124 104 138 104 7 0 12 -16 12
-37 1 -35 5 -72 20 -193 9 -73 43 -228 70 -324 14 -48 23 -90 21 -93 -18 -18
-582 -277 -635 -292 -101 -27 -171 -20 -297 29 -92 37 -145 44 -204 30 -103
-25 -163 -107 -167 -231 -5 -152 64 -321 175 -426 101 -95 239 -104 327 -21
32 30 44 51 105 183 59 128 131 183 344 261 155 57 466 164 475 164 5 0 30
-39 56 -87 64 -120 150 -246 250 -369 46 -57 80 -105 76 -107 -18 -10 -74 -19
-147 -23 -131 -7 -201 -58 -212 -155 -13 -107 105 -270 239 -329 88 -38 163
-31 217 20 42 41 53 70 55 160 3 88 15 160 25 160 4 0 21 -11 37 -25 108 -95
321 -240 437 -297 31 -16 57 -33 57 -39 0 -5 -9 -35 -21 -67 -11 -31 -22 -64
-24 -72 -2 -8 -36 -105 -75 -215 -130 -366 -151 -394 -360 -491 -47 -21 -98
-50 -114 -64 -67 -59 -91 -169 -55 -249 65 -147 275 -264 469 -262 79 0 101 5
142 28 95 53 138 147 114 249 -4 17 -20 64 -37 104 -70 174 -62 234 72 518
166 351 193 403 207 397 24 -9 234 -64 267 -70 17 -2 40 -7 51 -9 64 -13 228
-33 287 -35 l27 -1 -19 -37 c-10 -21 -43 -64 -73 -96 -68 -75 -88 -112 -88
-161 0 -113 108 -195 264 -199 204 -6 333 88 312 227 -6 36 -19 58 -73 118
-36 40 -74 90 -84 110 l-19 38 42 1 c142 3 480 67 599 114 l36 14 76 -157
c240 -496 251 -526 233 -657 -5 -32 -49 -164 -68 -203 -27 -54 -2 -171 48
-228 85 -95 298 -95 469 1 168 94 244 222 207 348 -20 69 -58 106 -151 149
-140 64 -151 71 -201 120 -44 43 -110 158 -110 190 0 8 -4 18 -9 23 -5 6 -18
37 -29 70 -12 33 -44 125 -72 205 -80 224 -92 261 -89 264 2 1 42 24 89 51
145 81 320 206 411 292 l35 34 12 -26 c13 -29 19 -66 27 -173 7 -102 29 -139
104 -177 115 -58 330 87 386 262 21 64 15 122 -16 168 -34 50 -79 68 -179 71
-77 3 -170 20 -170 31 0 2 35 48 79 101 98 121 156 208 233 345 33 59 64 107
68 107 3 0 40 -12 81 -26 197 -70 419 -148 465 -164 170 -60 233 -116 310
-276 57 -119 90 -160 152 -190 34 -16 115 -23 152 -13 19 5 88 50 115 75 126
116 200 355 156 510 -14 54 -74 117 -131 142 -60 25 -119 20 -212 -17 -103
-41 -154 -53 -216 -52 -79 1 -130 20 -402 148 -306 145 -350 167 -350 180 0 7
6 32 14 55 12 37 41 153 50 199 19 98 22 119 31 205 5 38 9 78 10 89 1 11 3
28 4 38 1 16 5 16 45 -5 24 -13 72 -49 106 -81 64 -60 84 -72 139 -80 69 -11
146 37 177 111 17 38 40 148 38 177 -13 177 -70 272 -173 290 -63 11 -97 -4
-178 -77 -67 -60 -138 -106 -148 -96 -2 2 -6 44 -10 93 -4 50 -9 101 -11 115
-3 14 -7 43 -10 65 -6 49 -33 186 -39 195 -2 3 -6 18 -9 32 -2 14 -14 60 -26
102 -12 43 -20 79 -18 81 8 8 455 221 558 266 25 11 54 24 65 29 99 45 213 36
370 -29 84 -34 151 -35 220 -1 87 42 133 143 121 268 -26 287 -245 508 -432
437 -65 -25 -100 -63 -145 -163 -58 -125 -60 -129 -96 -172 -54 -63 -126 -99
-378 -187 -55 -19 -109 -39 -120 -44 -27 -12 -284 -99 -294 -99 -5 0 -21 25
-36 56 -55 111 -218 346 -307 439 -44 46 -45 51 -17 65 30 16 54 21 144 26 98
6 131 16 171 51 89 80 66 219 -57 342 -116 117 -258 150 -340 79 -44 -39 -57
-76 -62 -188 -3 -69 -11 -116 -22 -137 l-16 -33 -77 63 c-122 99 -180 140
-308 216 -65 39 -125 74 -132 78 -14 9 -16 0 125 398 47 132 98 264 113 295
48 94 116 148 270 213 126 53 189 169 155 285 -31 103 -178 224 -315 257 -8 2
-30 9 -49 14 -18 6 -75 9 -125 8 -126 -4 -185 -38 -235 -134 -30 -58 -12 -175
43 -281 9 -18 14 -32 12 -32 -3 0 0 -15 5 -32 15 -47 11 -135 -7 -192 -21 -61
-159 -365 -173 -379 -6 -6 -11 -15 -11 -20 0 -8 -118 -258 -125 -265 -2 -2
-33 6 -70 17 -37 12 -77 23 -89 26 -11 2 -48 11 -82 19 -33 8 -83 18 -110 22
-27 3 -52 8 -55 10 -3 2 -35 6 -70 10 -35 4 -73 8 -84 9 -11 2 -33 4 -48 4
l-28 1 27 50 c15 27 48 71 73 97 65 67 83 99 86 152 3 64 -11 96 -57 136 -51
43 -120 66 -208 70 -83 4 -138 -7 -206 -41 -64 -32 -93 -70 -103 -134 -10 -61
7 -100 70 -167 58 -63 86 -103 94 -136 7 -26 5 -27 -31 -28 -51 -1 -143 -10
-239 -23 -70 -9 -209 -40 -318 -70 -32 -9 -60 -16 -63 -16 -2 0 -35 64 -73
143 -262 546 -252 520 -252 630 0 39 11 86 32 145 41 114 58 180 54 200 -20
105 -75 177 -151 200 -52 15 -185 14 -244 -2z"/>
</g>
</svg>
